HIERARCHY
ROOT Hips
{
	OFFSET 0.000000 0.000000 0.000000
	CHANNELS 6 Xposition Yposition Zposition Zrotation Yrotation Xrotation 
	JOINT LowerBack
	{
		OFFSET 0.000000 0.000000 0.000000
		CHANNELS 3 Zrotation Yrotation Xrotation
		JOINT Spine
		{
			OFFSET 0.028270 2.035590 -0.193380
			CHANNELS 3 Zrotation Yrotation Xrotation
			JOINT Spine1
			{
				OFFSET 0.056720 2.048850 -0.042750
				CHANNELS 3 Zrotation Yrotation Xrotation
				JOINT Neck
				{
					OFFSET 0.000000 0.000000 0.000000
					CHANNELS 3 Zrotation Yrotation Xrotation
					JOINT Neck1
					{
						OFFSET -0.054170 1.746240 0.172020
						CHANNELS 3 Zrotation Yrotation Xrotation
						JOINT Head
						{
							OFFSET 0.104070 1.761360 -0.123970
							CHANNELS 3 Zrotation Yrotation Xrotation
							End Site
							{
								OFFSET 0.000000 0.000000 0.000000
							}
						}
					}
				}
				JOINT LeftShoulder
				{
					OFFSET 0.000000 0.000000 0.000000
					CHANNELS 3 Zrotation Yrotation Xrotation
					JOINT LeftArm
					{
						OFFSET 3.362410 1.200890 -0.311210
						CHANNELS 3 Zrotation Yrotation Xrotation
						JOINT LeftForeArm
						{
							OFFSET 4.983000 -0.000000 -0.000000
							CHANNELS 3 Zrotation Yrotation Xrotation
							JOINT LeftHand
							{
								OFFSET 3.483560 -0.000000 -0.000000
								CHANNELS 3 Zrotation Yrotation Xrotation
								JOINT LeftFingerBase
								{
									OFFSET 0.000000 0.000000 0.000000
									CHANNELS 3 Zrotation Yrotation Xrotation
									JOINT LeftHandIndex1
									{
										OFFSET 0.715260 -0.000000 -0.000000
										CHANNELS 3 Zrotation Yrotation Xrotation
										End Site
										{
											OFFSET 0.000000 0.000000 0.000000
										}
									}
								}
								JOINT LThumb
								{
									OFFSET 0.000000 0.000000 0.000000
									CHANNELS 3 Zrotation Yrotation Xrotation
									End Site
									{
										OFFSET 0.000000 0.000000 0.000000
									}
								}
							}
						}
					}
				}
				JOINT RightShoulder
				{
					OFFSET 0.000000 0.000000 0.000000
					CHANNELS 3 Zrotation Yrotation Xrotation
					JOINT RightArm
					{
						OFFSET -3.136600 1.374050 -0.404650
						CHANNELS 3 Zrotation Yrotation Xrotation
						JOINT RightForeArm
						{
							OFFSET -5.241900 -0.000000 -0.000000
							CHANNELS 3 Zrotation Yrotation Xrotation
							JOINT RightHand
							{
								OFFSET -3.444170 -0.000000 -0.000000
								CHANNELS 3 Zrotation Yrotation Xrotation
								JOINT RightFingerBase
								{
									OFFSET 0.000000 0.000000 0.000000
									CHANNELS 3 Zrotation Yrotation Xrotation
									JOINT RightHandIndex1
									{
										OFFSET -0.622530 -0.000000 -0.000000
										CHANNELS 3 Zrotation Yrotation Xrotation
										End Site
										{
											OFFSET 0.000000 0.000000 0.000000
										}
									}
								}
								JOINT RThumb
								{
									OFFSET 0.000000 0.000000 0.000000
									CHANNELS 3 Zrotation Yrotation Xrotation
									End Site
									{
										OFFSET 0.000000 0.000000 0.000000
									}
								}
							}
						}
					}
				}
			}
		}
	}
}
}
MOTION
Frames: 15
Frame Time: 0.008333
2.884745 17.331220 0.508078 -176.505218 -49.867072 -171.725950 2.163735 -6.321949 -10.495177 1.468133 -6.651248 -4.429333 -0.876637 -6.836471 1.365920 14.371823 -18.418647 -9.709251 1.001952 0.122123 -0.462351 0.000000 0.000000 0.000000 22.403657 1.345043 4.417650 4.103890 -27.685473 -42.940025 -0.422373 -5.892938 -0.045664 6.941739 -5.482081 -0.382887 -0.265606 0.589603 -0.000000 0.000000 0.000000 0.000000 0.000000 0.000000 0.000000 2.789461 -17.509531 -2.672786 23.756107 26.843413 -6.217001 -178.518881 59.712653 179.885702 -11.887950 4.116537 -0.501913 0.191785 -0.619864 0.000000 0.000000 0.000000 0.000000 0.000000 0.000000 0.000000 
2.877172 17.327359 0.497015 -176.681160 -49.051559 -171.518844 2.378134 -6.042190 -10.612478 1.477889 -6.402505 -4.447892 -0.905504 -6.594487 1.503972 14.089325 -18.729201 -9.830939 0.980040 0.123505 -0.492631 0.000000 0.000000 0.000000 22.264774 1.848124 4.239879 2.023200 -25.412271 -37.059523 -0.276999 -14.164962 -0.049629 6.271196 -3.992900 -0.260962 -0.227035 0.603439 -0.000000 0.000000 0.000000 0.000000 0.000000 0.000000 0.000000 2.505735 -17.466286 -2.498842 23.031971 25.133567 -6.819363 -178.604791 58.975273 179.887144 -11.835189 4.109778 -0.499362 0.202913 -0.619812 0.000000 0.000000 0.000000 0.000000 0.000000 0.000000 0.000000 
2.872763 17.323057 0.487082 -176.813846 -48.256876 -171.399944 2.558869 -5.712123 -10.665118 1.448236 -6.103344 -4.490479 -1.039245 -6.295968 1.489054 13.894956 -18.950296 -9.792547 0.913320 0.117364 -0.475172 0.000000 0.000000 0.000000 21.956662 1.624745 4.004242 0.459622 -22.171929 -33.515239 -0.097719 -22.754968 -0.051989 5.792181 -3.270926 -0.203436 -0.186901 0.629342 -0.000000 0.000000 0.000000 0.000000 0.000000 0.000000 0.000000 2.387483 -17.294322 -2.249551 22.312705 23.070454 -7.397657 -178.741982 58.193658 179.888447 -11.857659 4.163702 -0.506678 0.220340 -0.620269 0.000000 0.000000 0.000000 0.000000 0.000000 0.000000 0.000000 
2.870815 17.318351 0.479439 -176.894906 -47.541350 -171.368904 2.695659 -5.364935 -10.632301 1.397194 -5.783120 -4.525810 -1.211497 -5.974353 1.421839 13.807092 -19.164380 -9.696920 0.824742 0.107873 -0.440501 0.000000 0.000000 0.000000 21.500037 1.366293 3.705967 -0.594851 -19.217302 -32.035231 0.074338 -30.622694 -0.052744 5.451222 -3.372944 -0.196866 -0.149388 0.660374 -0.000000 0.000000 0.000000 0.000000 0.000000 0.000000 0.000000 2.451500 -17.108591 -1.987592 21.580598 20.873381 -7.986295 -178.895639 57.454426 179.889612 -11.947891 4.285124 -0.524183 0.240233 -0.620497 0.000000 0.000000 0.000000 0.000000 0.000000 0.000000 0.000000 
2.869959 17.312895 0.474423 -176.936623 -46.946124 -171.407865 2.815346 -5.029394 -10.525478 1.343331 -5.470055 -4.541583 -1.380872 -5.659347 1.363049 13.777912 -19.431995 -9.594588 0.735788 0.098035 -0.404324 0.000000 0.000000 0.000000 20.971652 1.364925 3.350400 -1.478334 -16.895799 -31.793393 0.225619 -37.656782 -0.054515 5.334049 -3.881029 -0.217175 -0.118650 0.688127 -0.000000 0.000000 0.000000 0.000000 0.000000 0.000000 0.000000 2.609630 -17.013364 -1.754902 20.922257 18.767553 -8.544264 -179.041872 56.834414 179.890723 -12.078613 4.457923 -0.549292 0.259384 -0.620190 0.000000 0.000000 0.000000 0.000000 0.000000 0.000000 0.000000 
2.869100 17.306634 0.471793 -176.958183 -46.500248 -171.492459 2.939743 -4.728372 -10.367825 1.297297 -5.188133 -4.537988 -1.532728 -5.375186 1.333645 13.758293 -19.774005 -9.499582 0.655693 0.089040 -0.371259 0.000000 0.000000 0.000000 20.434345 1.643191 2.948412 -2.464640 -15.075931 -32.215312 0.346345 -44.093700 -0.058613 5.467795 -4.427094 -0.249145 -0.095556 0.708729 -0.000000 0.000000 0.000000 0.000000 0.000000 0.000000 0.000000 2.784386 -17.057827 -1.569695 20.411048 16.902251 -9.028045 -179.171312 56.376430 179.891907 -12.218506 4.652738 -0.577414 0.275950 -0.619072 0.000000 0.000000 0.000000 0.000000 0.000000 0.000000 0.000000 
2.867376 17.299758 0.470941 -176.974508 -46.221340 -171.598609 3.073946 -4.478427 -10.184529 1.262304 -4.954938 -4.520272 -1.666357 -5.139525 1.334730 13.719806 -20.183279 -9.412342 0.584349 0.080966 -0.341469 0.000000 0.000000 0.000000 19.937385 2.101425 2.518543 -3.717633 -13.461850 -32.937557 0.423509 -50.231138 -0.064812 5.813678 -4.794434 -0.283652 -0.079583 0.721170 -0.000000 0.000000 0.000000 0.000000 0.000000 0.000000 0.000000 2.937898 -17.244343 -1.435539 20.078660 15.346190 -9.416019 -179.283274 56.081827 179.893277 -12.340058 4.837065 -0.603848 0.289183 -0.616815 0.000000 0.000000 0.000000 0.000000 0.000000 0.000000 0.000000 
2.864358 17.292615 0.471121 -176.997040 -46.113534 -171.703545 3.209330 -4.288434 -9.999132 1.237239 -4.779750 -4.493495 -1.783869 -4.961981 1.365260 13.656151 -20.645002 -9.336927 0.518063 0.073625 -0.315887 0.000000 0.000000 0.000000 19.518263 2.646268 2.083938 -5.298690 -11.816979 -33.738432 0.447170 -56.267602 -0.071996 6.288444 -4.907636 -0.312677 -0.069600 0.726055 -0.000000 0.000000 0.000000 0.000000 0.000000 0.000000 0.000000 3.069659 -17.554384 -1.350312 19.916973 14.116783 -9.709838 -179.379719 55.930785 179.894911 -12.425123 4.984789 -0.624395 0.298959 -0.613102 0.000000 0.000000 0.000000 0.000000 0.000000 0.000000 0.000000 
2.859805 17.285578 0.471792 -177.029061 -46.167288 -171.794306 3.336703 -4.161492 -9.826872 1.220434 -4.665899 -4.460038 -1.886809 -4.846311 1.427732 13.572674 -21.139977 -9.284544 0.453312 0.066953 -0.297460 0.000000 0.000000 0.000000 19.185609 3.242175 1.669889 -7.174740 -10.029289 -34.481678 0.415210 -62.274739 -0.078765 6.787480 -4.781786 -0.329504 -0.064217 0.724696 -0.000000 0.000000 0.000000 0.000000 0.000000 0.000000 0.000000 3.195064 -17.958314 -1.311301 19.899398 13.203825 -9.926326 -179.461864 55.894124 179.896816 -12.465176 5.079003 -0.636653 0.305418 -0.607726 0.000000 0.000000 0.000000 0.000000 0.000000 0.000000 0.000000 
2.853969 17.278828 0.472146 -177.079764 -46.361536 -171.852847 3.434476 -4.092433 -9.681821 1.206404 -4.607443 -4.422399 -1.977954 -4.787043 1.522382 13.488113 -21.657297 -9.266406 0.387230 0.060904 -0.289063 0.000000 0.000000 0.000000 18.946354 3.850206 1.299374 -9.273065 -8.029895 -35.078725 0.335005 -68.253904 -0.083723 7.195759 -4.492966 -0.330329 -0.061816 0.718703 -0.000000 0.000000 0.000000 0.000000 0.000000 0.000000 0.000000 3.345204 -18.427449 -1.311575 19.988538 12.568969 -10.088256 -179.532353 55.938331 179.898950 -12.462120 5.113600 -0.639718 0.309158 -0.600687 0.000000 0.000000 0.000000 0.000000 0.000000 0.000000 0.000000 
2.847079 17.272535 0.471976 -177.144313 -46.665967 -171.878038 3.500729 -4.072916 -9.568346 1.193625 -4.596567 -4.380618 -2.060114 -4.776528 1.651784 13.415663 -22.174058 -9.294741 0.319497 0.055651 -0.294041 0.000000 0.000000 0.000000 18.756270 4.504455 0.991049 -11.446601 -5.882201 -35.473882 0.223475 -74.116178 -0.085829 7.416091 -4.122988 -0.315550 -0.060774 0.709458 -0.000000 0.000000 0.000000 0.000000 0.000000 0.000000 0.000000 3.535888 -18.920760 -1.346778 20.157101 12.161331 -10.218685 -179.591529 56.027462 179.901260 -12.421099 5.089670 -0.634087 0.310629 -0.592103 0.000000 0.000000 0.000000 0.000000 0.000000 0.000000 0.000000 
2.839584 17.266693 0.471011 -177.222879 -47.045397 -171.867618 3.530989 -4.089772 -9.485847 1.179090 -4.620195 -4.334309 -2.137924 -4.801692 1.815689 13.370801 -22.673730 -9.377901 0.251932 0.051459 -0.314722 0.000000 0.000000 0.000000 18.568363 5.253530 0.752531 -13.550999 -3.710722 -35.637270 0.102512 -79.741293 -0.084466 7.373481 -3.759940 -0.289274 -0.059221 0.698368 -0.000000 0.000000 0.000000 0.000000 0.000000 0.000000 0.000000 3.778134 -19.404320 -1.411083 20.387165 11.921797 -10.337866 -179.640538 56.125882 179.903666 -12.351592 5.016582 -0.621259 0.310434 -0.582317 0.000000 0.000000 0.000000 0.000000 0.000000 0.000000 0.000000 
2.832122 17.261109 0.469067 -177.317403 -47.464876 -171.819117 3.521239 -4.126783 -9.432056 1.158956 -4.662016 -4.284490 -2.218132 -4.845886 2.007111 13.366239 -23.140947 -9.515028 0.186993 0.048469 -0.350870 0.000000 0.000000 0.000000 18.349468 6.111877 0.583629 -15.476202 -1.613748 -35.549697 -0.007438 -85.027317 -0.079439 7.022729 -3.497711 -0.258509 -0.055263 0.686846 -0.000000 0.000000 0.000000 0.000000 0.000000 0.000000 0.000000 4.073056 -19.845622 -1.495653 20.670903 11.778338 -10.460112 -179.681966 56.198275 179.906089 -12.266008 4.908951 -0.603929 0.309344 -0.571840 0.000000 0.000000 0.000000 0.000000 0.000000 0.000000 0.000000 
2.825351 17.255595 0.466240 -177.425366 -47.892804 -171.739034 3.477378 -4.167923 -9.399962 1.131564 -4.706404 -4.231837 -2.306859 -4.892879 2.216906 13.406156 -23.557669 -9.699185 0.127580 0.046761 -0.400657 0.000000 0.000000 0.000000 18.070804 7.101862 0.474812 -17.138397 0.278275 -35.211576 -0.091001 -89.879859 -0.071105 6.364207 -3.384770 -0.227166 -0.047373 0.675925 0.000000 0.000000 0.000000 0.000000 0.000000 0.000000 0.000000 4.407349 -20.215261 -1.592677 21.012700 11.664488 -10.593078 -179.718035 56.218154 179.908447 -12.174935 4.784805 -0.584698 0.307948 -0.561265 0.000000 0.000000 0.000000 0.000000 0.000000 0.000000 0.000000 
2.819682 17.249987 0.463034 -177.539261 -48.305050 -171.641902 3.410931 -4.199028 -9.376612 1.097155 -4.739632 -4.175419 -2.407685 -4.928270 2.438045 13.486967 -23.906641 -9.921629 0.077216 0.046467 -0.461850 0.000000 0.000000 0.000000 17.714640 8.269412 0.409401 -18.503053 1.788772 -34.644076 179.860271 -85.792972 179.939993 5.416186 -3.412746 -0.193951 -0.034183 0.666074 0.000000 0.000000 0.000000 0.000000 0.000000 0.000000 0.000000 4.755635 -20.494125 -1.697725 21.426268 11.529821 -10.740171 -179.749475 56.166680 179.910650 -12.087895 4.666040 -0.566461 0.306603 -0.551318 0.000000 0.000000 0.000000 0.000000 0.000000 0.000000 0.000000 
